<svg width="32" height="24" viewBox="0 0 32 24" fill="none" xmlns="http://www.w3.org/2000/svg">
<path d="M31.8057 11.5485L28.4412 8.19141C28.1854 7.9362 27.7722 7.9362 27.5164 8.19141C27.2606 8.44663 27.2606 8.8589 27.5164 9.11411L29.7594 11.3521H0.649298C0.285298 11.3521 0 11.6466 0 12C0 12.3534 0.295136 12.6479 0.649298 12.6479H29.7693L27.5262 14.8859C27.3984 15.0135 27.3393 15.1804 27.3393 15.3472C27.3393 15.5141 27.3984 15.681 27.5262 15.8086C27.782 16.0638 28.1952 16.0638 28.451 15.8086L31.8155 12.4515C32.0615 12.2061 32.0615 11.7742 31.8155 11.5288L31.8057 11.5485Z" fill="white"/>
</svg>
